<?xml version="1.0" standalone="no"?>
<!DOCTYPE svg PUBLIC "-//W3C//DTD SVG 20010904//EN"
 "http://www.w3.org/TR/2001/REC-SVG-20010904/DTD/svg10.dtd">
<svg version="1.0" xmlns="http://www.w3.org/2000/svg"
 width="286.042388pt" height="350.688383pt" viewBox="0 0 286.042388 350.688383"
 preserveAspectRatio="xMidYMid meet">
<metadata>
Created by potrace 1.12, written by Peter Selinger 2001-2015
</metadata>
<g transform="translate(-21.536785,358.773698) scale(0.100000,-0.100000)"
fill="#000000" stroke="none">
<path d="M1994 3570 c-111 -44 -204 -177 -249 -355 -24 -92 -52 -346 -41 -363
14 -24 -179 -262 -280 -346 -86 -71 -228 -141 -884 -436 -47 -21 -130 -58
-185 -82 -131 -57 -140 -73 -140 -238 1 -106 3 -122 33 -196 69 -173 185 -294
316 -329 l66 -18 168 81 c257 124 444 204 455 193 5 -5 -10 -22 -37 -40 -100
-69 -121 -110 -147 -289 -12 -83 -28 -154 -41 -181 -26 -55 -215 -250 -392
-406 -75 -66 -136 -126 -136 -133 0 -7 14 -40 31 -74 50 -99 163 -200 284
-253 l54 -24 143 167 c333 389 343 399 401 421 30 11 71 21 91 23 37 3 37 3
64 -62 l28 -65 79 3 c84 4 165 30 165 54 0 7 -7 44 -15 81 l-14 68 84 82 c76
75 84 87 95 138 15 70 6 123 -26 156 -16 16 -24 35 -24 59 0 42 -23 89 -50
104 -13 7 -20 21 -20 38 0 53 -60 108 -131 120 l-42 7 -1 63 c-1 46 2 61 11
57 23 -8 335 -74 413 -86 74 -12 76 -13 155 -88 154 -147 250 -195 390 -195
78 0 97 3 140 26 105 54 199 196 239 359 59 245 35 594 -63 929 -140 479 -406
868 -687 1007 -67 33 -86 37 -162 40 -69 2 -98 -1 -138 -17z m319 -144 c82
-34 130 -69 223 -162 149 -149 289 -398 377 -669 67 -204 88 -333 94 -555 4
-160 2 -198 -16 -285 -26 -126 -76 -228 -142 -290 -63 -58 -106 -76 -184 -76
-123 0 -242 65 -374 207 -343 367 -541 1078 -426 1530 37 144 138 283 226 311
62 20 159 15 222 -11z m-697 -1828 c12 -39 7 -105 -11 -132 -10 -15 -38 -38
-62 -52 -24 -15 -48 -35 -54 -45 -5 -10 -28 -28 -49 -39 -22 -11 -40 -27 -40
-34 0 -8 -15 -27 -33 -43 l-33 -29 4 -93 5 -92 -52 -50 c-56 -54 -56 -56 -5
-34 19 8 40 14 47 12 6 -1 19 22 30 51 17 46 37 69 37 42 0 -5 25 -73 55 -149
30 -77 55 -142 55 -144 0 -3 -24 -13 -52 -23 -118 -38 -164 -73 -245 -183 -56
-76 -233 -265 -265 -282 -16 -9 -16 -6 -3 30 19 55 30 75 82 145 25 34 54 79
65 101 l19 40 -27 -35 c-41 -51 -167 -181 -171 -176 -3 2 10 30 28 62 l32 59
-31 -29 -31 -29 16 59 c18 70 27 89 65 132 32 37 93 152 80 152 -5 0 -21 -14
-38 -31 -27 -29 -257 -224 -351 -299 -24 -18 -45 -31 -48 -28 -14 14 64 104
156 179 205 169 268 257 295 410 36 211 74 288 178 358 40 27 87 66 105 86
l32 37 23 -21 c30 -28 40 -27 85 15 40 35 67 93 58 118 -3 8 -3 17 0 20 10 10
41 -13 49 -36z m-66 3 c0 -42 -44 -91 -81 -91 -59 0 -48 38 25 92 49 35 56 35
56 -1z m183 -171 c18 0 77 -54 77 -70 0 -5 -18 -6 -40 -3 -49 7 -119 -18 -165
-59 l-33 -29 -16 23 c-26 37 -20 63 24 98 45 35 85 51 115 45 11 -3 28 -5 38
-5z m101 -126 c9 -8 16 -21 16 -27 0 -7 7 -25 15 -40 12 -24 19 -50 41 -157 4
-17 -2 -33 -18 -52 -21 -25 -25 -26 -48 -13 -35 20 -81 18 -110 -5 -14 -11
-30 -20 -36 -20 -16 0 -42 31 -49 62 -6 23 -2 30 35 54 39 26 44 27 105 18 63
-10 64 -10 47 9 -44 50 -101 53 -160 7 -33 -27 -37 -26 -61 14 -33 52 -28 79
22 119 53 43 59 45 129 46 39 1 61 -4 72 -15z m10 -300 c9 -3 16 -11 16 -18 0
-19 -50 -86 -64 -86 -7 0 -17 20 -23 45 -9 39 -8 47 6 55 19 11 43 12 65 4z"/>
<path d="M2207 3316 c-172 -46 -260 -330 -212 -687 49 -370 210 -732 417 -937
217 -216 432 -186 516 72 22 67 50 242 40 251 -3 4 -41 -5 -84 -19 -251 -81
-457 -97 -599 -47 -72 26 -87 38 -61 53 42 23 99 85 124 132 24 45 27 62 27
146 0 79 -4 102 -23 137 -57 108 -158 173 -269 173 l-63 0 6 28 c17 71 89 235
134 304 67 102 182 208 276 255 l75 37 -28 23 c-42 34 -142 81 -188 86 -22 3
-62 0 -88 -7z"/>
<path d="M2596 2963 c-31 -37 -81 -104 -111 -149 -83 -123 -153 -264 -132
-264 2 0 26 22 53 48 98 95 265 226 352 278 6 4 -85 148 -96 152 -5 1 -35 -28
-66 -65z"/>
<path d="M2890 2320 c-110 -73 -350 -160 -442 -160 -21 0 -38 -4 -38 -8 0 -27
205 -56 320 -47 92 8 227 29 236 37 6 7 -16 191 -25 200 -3 4 -26 -6 -51 -22z"/>
</g>
</svg>
