<svg width="388" height="303" viewBox="0 0 388 303" fill="none" xmlns="http://www.w3.org/2000/svg">
<path d="M5.74484 162.231V138.264C5.74484 134.035 8.49776 130.235 12.6918 128.677L47.9077 116.106V16.6219C48.6254 11.1914 53.1888 6.91292 58.9821 6.24112C65.9628 5.43099 72.3223 10.0784 73.1856 16.6219V22.772C126.155 56.0535 210.963 87.4362 288.149 87.4362H344.398C355.055 87.4362 363.695 95.5348 363.695 105.524V113.573C373.835 113.672 381.983 121.432 381.93 130.937V169.374C381.615 178.83 373.206 186.269 363.116 186.016V194.336C363.116 204.325 354.476 212.424 343.82 212.424H322.593L300.305 282.424C299.255 285.942 295.809 288.356 291.912 288.303H252.836C251.971 288.402 251.096 288.402 250.231 288.303C245.514 286.798 242.797 282.173 243.959 277.631L256.405 238.561H250.423C249.561 238.693 248.681 238.693 247.818 238.561C243.139 237.02 240.469 232.406 241.642 227.889L245.405 216.946C184.084 225.814 125.476 246.808 73.4731 278.535V284.143C73.5743 284.894 73.5743 285.653 73.4731 286.404C72.8065 292.922 66.6303 297.701 59.6757 297.076C52.722 296.451 47.6242 290.662 48.2907 284.143V184.659L13.0747 172.088C8.62895 170.615 5.68214 166.65 5.74484 162.231Z" stroke="#FFFAFA" stroke-width="10.75" stroke-linecap="round" stroke-linejoin="round"/>
</svg>
